<svg width="152" height="114" viewBox="0 0 152 114" fill="none" xmlns="http://www.w3.org/2000/svg">
<g opacity="0.3">
<circle cx="5" cy="3" r="3" fill="#6DCBFF"/>
<circle cx="23" cy="3" r="3" fill="#6DCBFF"/>
<circle cx="41" cy="3" r="3" fill="#6DCBFF"/>
<circle cx="59" cy="3" r="3" fill="#6DCBFF"/>
<circle cx="77" cy="3" r="3" fill="#6DCBFF"/>
<circle cx="95" cy="3" r="3" fill="#6DCBFF"/>
<circle cx="113" cy="3" r="3" fill="#6DCBFF"/>
<circle cx="131" cy="3" r="3" fill="#6DCBFF"/>
<circle cx="149" cy="3" r="3" fill="#6DCBFF"/>
<circle cx="5" cy="21" r="3" fill="#6DCBFF"/>
<circle cx="23" cy="21" r="3" fill="#6DCBFF"/>
<circle cx="41" cy="21" r="3" fill="#6DCBFF"/>
<circle cx="59" cy="21" r="3" fill="#6DCBFF"/>
<circle cx="77" cy="21" r="3" fill="#6DCBFF"/>
<circle cx="95" cy="21" r="3" fill="#6DCBFF"/>
<circle cx="113" cy="21" r="3" fill="#6DCBFF"/>
<circle cx="131" cy="21" r="3" fill="#6DCBFF"/>
<circle cx="149" cy="21" r="3" fill="#6DCBFF"/>
<circle cx="5" cy="39" r="3" fill="#6DCBFF"/>
<circle cx="23" cy="39" r="3" fill="#6DCBFF"/>
<circle cx="41" cy="39" r="3" fill="#6DCBFF"/>
<circle cx="59" cy="39" r="3" fill="#6DCBFF"/>
<circle cx="77" cy="39" r="3" fill="#6DCBFF"/>
<circle cx="95" cy="39" r="3" fill="#6DCBFF"/>
<circle cx="113" cy="39" r="3" fill="#6DCBFF"/>
<circle cx="131" cy="39" r="3" fill="#6DCBFF"/>
<circle cx="149" cy="39" r="3" fill="#6DCBFF"/>
<circle cx="5" cy="57" r="3" fill="#6DCBFF"/>
<circle cx="23" cy="57" r="3" fill="#6DCBFF"/>
<circle cx="41" cy="57" r="3" fill="#6DCBFF"/>
<circle cx="59" cy="57" r="3" fill="#6DCBFF"/>
<circle cx="77" cy="57" r="3" fill="#6DCBFF"/>
<circle cx="95" cy="57" r="3" fill="#6DCBFF"/>
<circle cx="113" cy="57" r="3" fill="#6DCBFF"/>
<circle cx="131" cy="57" r="3" fill="#6DCBFF"/>
<circle cx="149" cy="57" r="3" fill="#6DCBFF"/>
<circle cx="5" cy="75" r="3" fill="#6DCBFF"/>
<circle cx="23" cy="75" r="3" fill="#6DCBFF"/>
<circle cx="41" cy="75" r="3" fill="#6DCBFF"/>
<circle cx="59" cy="75" r="3" fill="#6DCBFF"/>
<circle cx="77" cy="75" r="3" fill="#6DCBFF"/>
<circle cx="95" cy="75" r="3" fill="#6DCBFF"/>
<circle cx="113" cy="75" r="3" fill="#6DCBFF"/>
<circle cx="131" cy="75" r="3" fill="#6DCBFF"/>
<circle cx="149" cy="75" r="3" fill="#6DCBFF"/>
<circle cx="5" cy="93" r="3" fill="#6DCBFF"/>
<circle cx="23" cy="93" r="3" fill="#6DCBFF"/>
<circle cx="41" cy="93" r="3" fill="#6DCBFF"/>
<circle cx="59" cy="93" r="3" fill="#6DCBFF"/>
<circle cx="77" cy="93" r="3" fill="#6DCBFF"/>
<circle cx="95" cy="93" r="3" fill="#6DCBFF"/>
<circle cx="113" cy="93" r="3" fill="#6DCBFF"/>
<circle cx="131" cy="93" r="3" fill="#6DCBFF"/>
<circle cx="149" cy="93" r="3" fill="#6DCBFF"/>
<circle cx="5" cy="111" r="3" fill="#6DCBFF"/>
<circle cx="23" cy="111" r="3" fill="#6DCBFF"/>
<circle cx="41" cy="111" r="3" fill="#6DCBFF"/>
<circle cx="59" cy="111" r="3" fill="#6DCBFF"/>
<circle cx="77" cy="111" r="3" fill="#6DCBFF"/>
<circle cx="95" cy="111" r="3" fill="#6DCBFF"/>
<circle cx="113" cy="111" r="3" fill="#6DCBFF"/>
<circle cx="131" cy="111" r="3" fill="#6DCBFF"/>
<circle cx="149" cy="111" r="3" fill="#6DCBFF"/>
</g>
</svg>
